<?xml version="1.0" encoding="utf-8"?>
<!-- Generator: Adobe Illustrator 26.3.1, SVG Export Plug-In . SVG Version: 6.00 Build 0)  -->
<svg version="1.1" xmlns="http://www.w3.org/2000/svg" xmlns:xlink="http://www.w3.org/1999/xlink" x="0px" y="0px"
	 viewBox="0 0 300 300" style="enable-background:new 0 0 300 300;" xml:space="preserve">
<style type="text/css">
	.st0{fill:#D31216;}
	.st1{fill:#E0E0E0;}
	.st2{fill:#FFFFFF;}
	.st3{fill:none;}
	.st4{fill:#FEC605;}
</style>
<g id="Calque_1">
	<g>
		<g>
			<g>
				<path class="st0" d="M158.33,253.47c2.92-3.86,5.15-8.34,6.46-13.32c4.79-18.2-4.37-36.76-20.85-44.12
					c-30.21-15.69-46.77-50.02-37.96-83.49c10.26-38.96,51.02-61.99,91.03-51.45c13.74,3.62,25.61,10.73,34.85,20.08
					c24.83,27.47,35.74,66.55,25.6,105.03c-15.5,58.86-74.53,94.67-133.43,82C137.41,269.78,150.4,263.95,158.33,253.47z"/>
			</g>
			
				<ellipse transform="matrix(0.8085 -0.5885 0.5885 0.8085 -30.7222 143.3796)" class="st1" cx="204.93" cy="118.89" rx="35.08" ry="41.95"/>
			
				<ellipse transform="matrix(0.8085 -0.5885 0.5885 0.8085 -31.0259 143.4784)" class="st2" cx="204.93" cy="119.41" rx="32.5" ry="38.86"/>
		</g>
		<line class="st3" x1="88.45" y1="156.19" x2="88.26" y2="156.19"/>
		<path class="st3" d="M108.75,264.59"/>
		<path class="st3" d="M72.08,229.19"/>
		<path class="st3" d="M101.4,258.37"/>
		<path class="st2" d="M118.8,245.13c-0.79,1.1-3.45,5.07-2.98,10.55c0.65,7.56,6.72,11.56,7.46,12.03c0,0,0.38,0.24,0.77,0.49
			c-0.38-0.08-0.77-0.15-0.77-0.15C71.19,257.62,31.94,211.41,32,156.01c0.7-9.5,8.6-16.99,18.23-16.99c6.58,0,12.36,3.5,15.57,8.74
			c1.88-0.67,3.92-1.03,6.03-1.03c6.85,0,12.82,3.79,15.96,9.39c1.49,2.65,2.33,5.72,2.33,8.98c0,4.33-1.5,8.33-4.01,11.47
			c8.92,4.01,14.65,11.77,14.78,19.22c0.08,4.5-1.87,10.26-3.73,12.3c-0.79,0.87-1.55,1.77-2.36,2.63c-1.49,1.57-2.32,2.3-2.17,2.52
			c0.17,0.25,1.36-0.56,3.37-0.97c1.39-0.29,2.45-0.23,3.63-0.17c2.54,0.13,4.43,0.71,5.63,1.09c1,0.32,3.3,1.06,5.72,2.55
			c6.84,4.24,10.7,11.1,10.7,19.34c0,4.31-1.67,8.55-4.24,12.18"/>
		<path class="st3" d="M126.5,268.7"/>
	</g>
</g>
<g id="Calque_3">
	<g>
		<path class="st4" d="M126.94,43c2.48,7.23,6.91,20.1,6.91,20.1l-24.95,24.37c0,0-11.68-5.9-18.31-9.25
			c-0.75,1.2-2.09,2.04-3.72,2.03c-1.65-0.01-3.19-1.03-3.85-2.55c-1.13-2.6,0.43-5.42,3.05-5.97c2.21-0.46,4.38,0.85,5.01,2.99
			c2.53-0.69,5.38-1.47,7.51-2.06c1.86-0.51,3.02-2.35,2.69-4.25l-2.51-14.38c-2.57,0.41-5.01-1.56-4.98-4.35
			c0.02-1.64,1.03-3.16,2.52-3.82c2.6-1.15,5.44,0.41,5.99,3.04c0.1,0.48,0.11,0.95,0.06,1.4L117,53.38c1.89,0.4,3.77-0.7,4.34-2.54
			l2.44-7.78c-1.59-0.59-2.8-2.12-2.81-4.06c-0.01-1.66,1-3.22,2.52-3.89c2.6-1.15,5.45,0.4,6,3.03
			C129.93,40.21,128.81,42.23,126.94,43z"/>
		<path class="st4" d="M115.74,94.19l25.28-24.73c1.18-1.16,1.2-3.06,0.05-4.24l-0.79-0.81c-1.16-1.18-3.06-1.2-4.24-0.05
			l-25.28,24.73c-1.18,1.16-1.2,3.06-0.05,4.24l0.79,0.81C112.66,95.33,114.55,95.35,115.74,94.19z"/>
	</g>
</g>
</svg>
