<?xml version="1.0" encoding="utf-8"?>
<!-- Generator: Adobe Illustrator 26.3.1, SVG Export Plug-In . SVG Version: 6.00 Build 0)  -->
<svg version="1.1" xmlns="http://www.w3.org/2000/svg" xmlns:xlink="http://www.w3.org/1999/xlink" x="0px" y="0px"
	 viewBox="0 0 300 300" style="enable-background:new 0 0 300 300;" xml:space="preserve">
<style type="text/css">
	.st0{fill:#D31216;}
	.st1{fill:#E0E0E0;}
	.st2{fill:#FFFFFF;}
	.st3{fill:none;}
</style>
<g id="Calque_1">
</g>
<g id="Calque_2">
</g>
<g id="Calque_3">
	<g>
		<g>
			<g>
				<path class="st0" d="M165.9,251.76c2.92-3.86,5.15-8.34,6.46-13.32c4.79-18.2-4.37-36.76-20.85-44.12
					c-30.21-15.69-46.77-50.02-37.96-83.49c10.26-38.96,51.02-61.99,91.03-51.45c13.74,3.62,25.61,10.73,34.85,20.08
					c24.83,27.47,35.74,66.55,25.6,105.03c-15.5,58.86-74.53,94.67-133.43,82C144.98,268.07,157.97,262.23,165.9,251.76z"/>
			</g>
			
				<ellipse transform="matrix(0.8085 -0.5885 0.5885 0.8085 -28.264 147.5058)" class="st1" cx="212.5" cy="117.18" rx="35.08" ry="41.95"/>
			
				<ellipse transform="matrix(0.8085 -0.5885 0.5885 0.8085 -28.5678 147.6046)" class="st2" cx="212.5" cy="117.69" rx="32.5" ry="38.86"/>
		</g>
		<line class="st3" x1="96.02" y1="154.48" x2="95.83" y2="154.48"/>
		<path class="st3" d="M116.32,262.87"/>
		<path class="st3" d="M79.65,227.48"/>
		<path class="st3" d="M108.97,256.65"/>
		<path class="st2" d="M126.36,243.42c-0.79,1.1-3.45,5.07-2.98,10.55c0.65,7.56,6.72,11.56,7.46,12.03c0,0,0.38,0.24,0.77,0.49
			c-0.38-0.08-0.77-0.15-0.77-0.15C78.76,255.9,39.51,209.7,39.57,154.3c0.7-9.5,8.6-16.99,18.23-16.99c6.58,0,12.36,3.5,15.57,8.74
			c1.88-0.67,3.92-1.03,6.03-1.03c6.85,0,12.82,3.79,15.96,9.39c1.49,2.65,2.33,5.72,2.33,8.98c0,4.33-1.5,8.33-4.01,11.47
			c8.92,4.01,14.65,11.77,14.78,19.22c0.08,4.5-1.87,10.26-3.73,12.3c-0.79,0.87-1.55,1.77-2.36,2.63c-1.49,1.57-2.32,2.3-2.17,2.52
			c0.17,0.25,1.36-0.56,3.37-0.97c1.39-0.29,2.45-0.23,3.63-0.17c2.54,0.13,4.43,0.71,5.63,1.09c1,0.32,3.3,1.06,5.72,2.55
			c6.84,4.24,10.7,11.1,10.7,19.34c0,4.31-1.67,8.55-4.24,12.18"/>
		<path class="st3" d="M134.06,266.98"/>
	</g>
</g>
</svg>
