<?xml version="1.0" encoding="utf-8"?>
<!-- Generator: Adobe Illustrator 26.3.1, SVG Export Plug-In . SVG Version: 6.00 Build 0)  -->
<svg version="1.1" xmlns="http://www.w3.org/2000/svg" xmlns:xlink="http://www.w3.org/1999/xlink" x="0px" y="0px"
	 viewBox="0 0 300 300" style="enable-background:new 0 0 300 300;" xml:space="preserve">
<style type="text/css">
	.st0{fill:#D31216;}
	.st1{fill:#E0E0E0;}
	.st2{fill:#FFFFFF;}
	.st3{fill:none;}
	.st4{fill:none;stroke:#9B5D15;stroke-width:13;stroke-miterlimit:10;}
	.st5{fill:#D07C11;}
</style>
<g id="Calque_4">
</g>
<g id="Calque_1">
	<g>
		<g>
			<g>
				<path class="st0" d="M158.33,253.47c2.92-3.86,5.15-8.34,6.46-13.32c4.79-18.2-4.37-36.76-20.85-44.12
					c-30.21-15.69-46.77-50.02-37.96-83.49c10.26-38.96,51.02-61.99,91.03-51.45c13.74,3.62,25.61,10.73,34.85,20.08
					c24.83,27.47,35.74,66.55,25.6,105.03c-15.5,58.86-74.53,94.67-133.43,82C137.41,269.78,150.4,263.95,158.33,253.47z"/>
			</g>
			
				<ellipse transform="matrix(0.8085 -0.5885 0.5885 0.8085 -30.7222 143.3796)" class="st1" cx="204.93" cy="118.89" rx="35.08" ry="41.95"/>
			
				<ellipse transform="matrix(0.8085 -0.5885 0.5885 0.8085 -31.0259 143.4784)" class="st2" cx="204.93" cy="119.41" rx="32.5" ry="38.86"/>
		</g>
		<line class="st3" x1="88.45" y1="156.19" x2="88.26" y2="156.19"/>
		<path class="st3" d="M108.75,264.59"/>
		<path class="st3" d="M72.08,229.19"/>
		<path class="st3" d="M101.4,258.37"/>
		<path class="st2" d="M118.8,245.13c-0.79,1.1-3.45,5.07-2.98,10.55c0.65,7.56,6.72,11.56,7.46,12.03c0,0,0.38,0.24,0.77,0.49
			c-0.38-0.08-0.77-0.15-0.77-0.15C71.19,257.62,31.94,211.41,32,156.01c0.7-9.5,8.6-16.99,18.23-16.99c6.58,0,12.36,3.5,15.57,8.74
			c1.88-0.67,3.92-1.03,6.03-1.03c6.85,0,12.82,3.79,15.96,9.39c1.49,2.65,2.33,5.72,2.33,8.98c0,4.33-1.5,8.33-4.01,11.47
			c8.92,4.01,14.65,11.77,14.78,19.22c0.08,4.5-1.87,10.26-3.73,12.3c-0.79,0.87-1.55,1.77-2.36,2.63c-1.49,1.57-2.32,2.3-2.17,2.52
			c0.17,0.25,1.36-0.56,3.37-0.97c1.39-0.29,2.45-0.23,3.63-0.17c2.54,0.13,4.43,0.71,5.63,1.09c1,0.32,3.3,1.06,5.72,2.55
			c6.84,4.24,10.7,11.1,10.7,19.34c0,4.31-1.67,8.55-4.24,12.18"/>
		<path class="st3" d="M126.5,268.7"/>
	</g>
</g>
<g id="Calque_3">
	<g>
		<path class="st4" d="M136.92,222.1l-28.49-25.86c-2.04-1.86-2.2-5.02-0.34-7.06l20.78-22.9c1.86-2.04,5.02-2.2,7.06-0.34
			l28.49,25.86c2.04,1.86,2.2,5.02,0.34,7.06l-20.78,22.9C142.13,223.8,138.96,223.95,136.92,222.1z"/>
		<path class="st5" d="M128.01,254.79l-51.25-46.51c-2.04-1.86-2.2-5.02-0.34-7.06l30.68-33.81l58.66,53.23l-30.68,33.81
			C133.21,256.49,130.05,256.64,128.01,254.79z"/>
	</g>
</g>
</svg>
